<?xml version="1.0" encoding="utf-8"?>
<!-- Generator: Adobe Illustrator 23.0.1, SVG Export Plug-In . SVG Version: 6.00 Build 0)  -->
<svg version="1.1" id="Camada_1" xmlns="http://www.w3.org/2000/svg" xmlns:xlink="http://www.w3.org/1999/xlink" x="0px" y="0px"
	 viewBox="0 0 155.2 77.7" style="enable-background:new 0 0 155.2 77.7;" xml:space="preserve">
<style type="text/css">
	.st0{fill:#FFFFFF;stroke:#000000;stroke-width:8;stroke-miterlimit:10;}
	.st1{fill:none;stroke:#010202;stroke-width:8;stroke-miterlimit:10;}
	.st2{fill:none;stroke:#000000;stroke-width:8;stroke-miterlimit:10;}
	.st3{fill:none;stroke:#FFFFFF;stroke-width:20;stroke-miterlimit:10;}
	.st4{fill:none;stroke:#FFFFFF;stroke-width:21;stroke-miterlimit:10;}
	.st5{fill:#FFFFFF;}
</style>
<g>
	<g>
		<circle class="st5" cx="40" cy="45" r="6.3"/>
		<path class="st5" d="M39.9,52.5c-1.5,0-3-0.5-4.3-1.4c-3.3-2.4-4.1-7-1.7-10.4c2.4-3.3,7-4.1,10.4-1.7c1.6,1.2,2.7,2.9,3,4.8
			c0.3,2-0.1,3.9-1.3,5.6c-1.2,1.6-2.9,2.7-4.8,3C40.8,52.4,40.3,52.5,39.9,52.5z M40,39.8c-1.6,0-3.2,0.8-4.2,2.2
			c-1.7,2.3-1.1,5.6,1.2,7.3c1.1,0.8,2.5,1.1,3.9,0.9c1.4-0.2,2.6-1,3.4-2.1c0.8-1.1,1.1-2.5,0.9-3.9c-0.2-1.4-1-2.6-2.1-3.4
			C42.1,40.1,41,39.8,40,39.8z"/>
	</g>
	<g>
		<circle class="st5" cx="40" cy="38.4" r="32.1"/>
		<path d="M40,72.7C21,72.7,5.6,57.4,5.6,38.4C5.6,19.5,21,4.1,40,4.1s34.3,15.4,34.3,34.3C74.3,57.4,58.9,72.7,40,72.7z M40,8.6
			C23.5,8.6,10.1,22,10.1,38.4S23.5,68.3,40,68.3s29.8-13.4,29.8-29.8S56.4,8.6,40,8.6z"/>
	</g>
	<path d="M42.6,43.6c-2.8-2-3.5-6-1.5-8.8c1.1-1.5,2.7-2.4,4.4-2.6c-3.8-5-9.9-8.2-16.6-8.2c-11.6,0-21,9.4-21,21s9.4,21,21,21
		s21-9.4,21-21c0-0.5,0-0.9-0.1-1.4C47.7,45.1,44.8,45.2,42.6,43.6z"/>
</g>
<g>
	<g>
		<circle class="st5" cx="114.7" cy="45" r="6.3"/>
		<path class="st5" d="M114.7,52.5c-1.5,0-3-0.5-4.3-1.4c-3.3-2.4-4.1-7-1.7-10.4c2.4-3.3,7-4.1,10.4-1.7c1.6,1.2,2.7,2.9,3,4.8
			c0.3,2-0.1,3.9-1.3,5.6c-1.2,1.6-2.9,2.7-4.8,3C115.5,52.4,115.1,52.5,114.7,52.5z M114.7,39.8c-1.6,0-3.2,0.8-4.2,2.2
			c-1.7,2.3-1.1,5.6,1.2,7.3c1.1,0.8,2.5,1.1,3.9,0.9c1.4-0.2,2.6-1,3.4-2.1c0.8-1.1,1.1-2.5,0.9-3.9c-0.2-1.4-1-2.6-2.1-3.4
			C116.8,40.1,115.7,39.8,114.7,39.8z"/>
	</g>
	<g>
		<circle class="st5" cx="114.7" cy="38.4" r="32.1"/>
		<path d="M114.7,72.7c-18.9,0-34.3-15.4-34.3-34.3c0-18.9,15.4-34.3,34.3-34.3S149,19.5,149,38.4C149,57.4,133.6,72.7,114.7,72.7z
			 M114.7,8.6C98.2,8.6,84.8,22,84.8,38.4s13.4,29.8,29.8,29.8s29.8-13.4,29.8-29.8S131.1,8.6,114.7,8.6z"/>
	</g>
	<path d="M117.3,43.6c-2.8-2-3.5-6-1.5-8.8c1.1-1.5,2.7-2.4,4.4-2.6c-3.8-5-9.9-8.2-16.6-8.2c-11.6,0-21,9.4-21,21s9.4,21,21,21
		s21-9.4,21-21c0-0.5,0-0.9-0.1-1.4C122.5,45.1,119.6,45.2,117.3,43.6z"/>
</g>
</svg>
