<?xml version="1.0" encoding="utf-8"?>
<!-- Generator: Adobe Illustrator 23.0.1, SVG Export Plug-In . SVG Version: 6.00 Build 0)  -->
<svg version="1.1" id="Camada_1" xmlns="http://www.w3.org/2000/svg" xmlns:xlink="http://www.w3.org/1999/xlink" x="0px" y="0px"
	 viewBox="0 0 155.2 77.7" style="enable-background:new 0 0 155.2 77.7;" xml:space="preserve">
<style type="text/css">
	.st0{fill:#FFFFFF;stroke:#000000;stroke-width:8;stroke-miterlimit:10;}
	.st1{fill:none;stroke:#010202;stroke-width:8;stroke-miterlimit:10;}
	.st2{fill:none;stroke:#000000;stroke-width:8;stroke-miterlimit:10;}
	.st3{fill:none;stroke:#FFFFFF;stroke-width:20;stroke-miterlimit:10;}
	.st4{fill:none;stroke:#FFFFFF;stroke-width:21;stroke-miterlimit:10;}
	.st5{fill:#FFFFFF;}
</style>
<g>
	<g>
		<circle class="st5" cx="39.8" cy="38.8" r="32.1"/>
		<path d="M39.8,73.1c-18.9,0-34.3-15.4-34.3-34.3S20.9,4.5,39.8,4.5s34.3,15.4,34.3,34.3S58.7,73.1,39.8,73.1z M39.8,9
			C23.4,9,10,22.4,10,38.8s13.4,29.8,29.8,29.8s29.8-13.4,29.8-29.8S56.3,9,39.8,9z"/>
	</g>
	<path d="M50.9,11.2c-4.4,0-8.4,1.3-11.8,3.6c0.4,0.2,0.8,0.4,1.2,0.7c2.8,2,3.5,6,1.5,8.8c-2,2.8-6,3.5-8.8,1.5
		c-0.6-0.4-1.1-1-1.5-1.5c-1,2.5-1.6,5.2-1.6,8c0,11.6,9.4,21,21,21s21-9.4,21-21S62.5,11.2,50.9,11.2z"/>
</g>
<g>
	<g>
		<circle class="st5" cx="114.8" cy="38.7" r="32.1"/>
		<path d="M114.8,73c-18.9,0-34.3-15.4-34.3-34.3S95.8,4.4,114.8,4.4s34.3,15.4,34.3,34.3S133.7,73,114.8,73z M114.8,8.9
			c-16.5,0-29.8,13.4-29.8,29.8s13.4,29.8,29.8,29.8s29.8-13.4,29.8-29.8S131.2,8.9,114.8,8.9z"/>
	</g>
	<path d="M125.8,11.1c-4.4,0-8.4,1.3-11.8,3.6c0.4,0.2,0.8,0.4,1.2,0.7c2.8,2,3.5,6,1.5,8.8c-2,2.8-6,3.5-8.8,1.5
		c-0.6-0.4-1.1-1-1.5-1.5c-1,2.5-1.6,5.2-1.6,8c0,11.6,9.4,21,21,21s21-9.4,21-21S137.4,11.1,125.8,11.1z"/>
</g>
</svg>
