<?xml version="1.0" encoding="utf-8"?>
<!-- Generator: Adobe Illustrator 23.0.1, SVG Export Plug-In . SVG Version: 6.00 Build 0)  -->
<svg version="1.1" id="Camada_1" xmlns="http://www.w3.org/2000/svg" xmlns:xlink="http://www.w3.org/1999/xlink" x="0px" y="0px"
	 viewBox="0 0 75.1 77.7" style="enable-background:new 0 0 75.1 77.7;" xml:space="preserve">
<style type="text/css">
	.st0{fill:#FFFFFF;stroke:#1D1D1B;stroke-width:8;stroke-miterlimit:10;}
	.st1{fill:none;stroke:#000000;stroke-width:8;stroke-miterlimit:10;}
	.st2{fill:none;stroke:#1D1D1B;stroke-width:8;stroke-miterlimit:10;}
	.st3{fill:none;stroke:#FFFFFF;stroke-width:20;stroke-miterlimit:10;}
	.st4{fill:none;stroke:#FFFFFF;stroke-width:21;stroke-miterlimit:10;}
	.st5{fill:#FFFFFF;}
	.st6{fill:#1D1D1B;}
	.st7{fill:#00FF00;}
	.st8{fill:#C8C8C8;}
</style>
<g>
	<g>
		<path class="st7" d="M37.3,73.1C18.4,73.1,3,57.8,3,38.8S18.4,4.5,37.3,4.5s34.3,15.4,34.3,34.3S56.2,73.1,37.3,73.1z M37.3,9
			C20.8,9,7.4,22.4,7.4,38.8s13.4,29.8,29.8,29.8s29.8-13.4,29.8-29.8S53.7,9,37.3,9z"/>
	</g>
</g>
<g>
	<path class="st7" d="M31.5,44c1.8-1.5,3.2-2.7,4.2-3.6c1-0.9,1.9-1.9,2.6-2.9c0.7-1,1.1-2,1.1-3c0-0.7-0.2-1.3-0.5-1.7
		s-0.9-0.6-1.5-0.6c-0.7,0-1.2,0.3-1.6,0.8c-0.4,0.5-0.6,1.2-0.6,2.2h-4.5c0-1.5,0.4-2.8,1-3.8c0.6-1,1.4-1.8,2.5-2.3
		s2.1-0.7,3.4-0.7c2.1,0,3.8,0.5,4.8,1.6c1.1,1.1,1.6,2.5,1.6,4.3c0,1.9-0.7,3.7-2,5.4c-1.3,1.6-3,3.3-5,4.8h7.3v3.8H30.6v-3.4
		C31.2,44.2,31.5,44,31.5,44z"/>
</g>
</svg>
