<?xml version="1.0" encoding="utf-8"?>
<!-- Generator: Adobe Illustrator 23.0.1, SVG Export Plug-In . SVG Version: 6.00 Build 0)  -->
<svg version="1.1" id="Camada_1" xmlns="http://www.w3.org/2000/svg" xmlns:xlink="http://www.w3.org/1999/xlink" x="0px" y="0px"
	 viewBox="0 0 75.1 77.7" style="enable-background:new 0 0 75.1 77.7;" xml:space="preserve">
<style type="text/css">
	.st0{fill:#FFFFFF;stroke:#1D1D1B;stroke-width:8;stroke-miterlimit:10;}
	.st1{fill:none;stroke:#000000;stroke-width:8;stroke-miterlimit:10;}
	.st2{fill:none;stroke:#1D1D1B;stroke-width:8;stroke-miterlimit:10;}
	.st3{fill:none;stroke:#FFFFFF;stroke-width:20;stroke-miterlimit:10;}
	.st4{fill:none;stroke:#FFFFFF;stroke-width:21;stroke-miterlimit:10;}
	.st5{fill:#FFFFFF;}
	.st6{fill:#1D1D1B;}
	.st7{fill:#00FF00;}
	.st8{fill:#C8C8C8;}
</style>
<g>
	<g>
		<path class="st8" d="M37.5,73.1c-18.9,0-34.3-15.4-34.3-34.3S18.6,4.5,37.5,4.5s34.3,15.4,34.3,34.3S56.5,73.1,37.5,73.1z M37.5,9
			C21.1,9,7.7,22.4,7.7,38.8s13.4,29.8,29.8,29.8s29.8-13.4,29.8-29.8S54,9,37.5,9z"/>
	</g>
</g>
<g>
	<path class="st8" d="M15.3,29.8c1.2-1,2.8-1.6,4.8-1.6c1.4,0,2.5,0.2,3.5,0.7c1,0.5,1.7,1.1,2.2,1.9c0.5,0.8,0.7,1.7,0.7,2.7
		c0,1.2-0.3,2.2-0.9,2.9c-0.6,0.7-1.3,1.3-2.1,1.5v0.1c1,0.3,1.8,0.9,2.4,1.7s0.9,1.8,0.9,3.1c0,1.1-0.3,2.1-0.8,3
		c-0.5,0.9-1.3,1.5-2.2,2c-1,0.5-2.1,0.7-3.5,0.7c-2.2,0-3.9-0.5-5.2-1.6c-1.3-1.1-2-2.7-2-4.8h4.5c0,0.8,0.2,1.4,0.7,1.9
		s1.1,0.7,1.9,0.7c0.7,0,1.2-0.2,1.6-0.6c0.4-0.4,0.6-0.9,0.6-1.6c0-0.9-0.3-1.5-0.8-1.9c-0.5-0.4-1.4-0.6-2.6-0.6h-0.9v-3.8h0.9
		c0.9,0,1.7-0.2,2.2-0.5c0.6-0.3,0.9-0.9,0.9-1.7c0-0.6-0.2-1.2-0.5-1.5c-0.4-0.4-0.9-0.5-1.5-0.5c-0.7,0-1.2,0.2-1.5,0.6
		c-0.3,0.4-0.5,0.9-0.6,1.5h-4.5C13.4,32.3,14.1,30.8,15.3,29.8z"/>
	<path class="st8" d="M38.5,32.5C38.2,32.2,37.7,32,37,32c-1,0-1.8,0.4-2.2,1.3c-0.5,0.9-0.7,2.3-0.7,4.2c0.4-0.6,1-1.1,1.7-1.5
		c0.7-0.4,1.6-0.5,2.5-0.5c1.8,0,3.2,0.6,4.3,1.7c1.1,1.1,1.6,2.7,1.6,4.7c0,1.3-0.3,2.5-0.8,3.5c-0.5,1-1.3,1.8-2.3,2.3
		c-1,0.6-2.2,0.8-3.6,0.8c-2.8,0-4.7-0.9-5.8-2.6c-1.1-1.7-1.6-4.2-1.6-7.5c0-3.4,0.6-6,1.7-7.6c1.1-1.7,3-2.5,5.5-2.5
		c1.4,0,2.5,0.3,3.4,0.8c0.9,0.5,1.6,1.2,2.1,2.1c0.5,0.9,0.8,1.8,0.9,2.8h-4.3C39.1,33.3,38.9,32.8,38.5,32.5z M35.2,39.9
		c-0.5,0.5-0.8,1.1-0.8,2c0,0.9,0.2,1.5,0.7,2c0.5,0.5,1.2,0.7,2,0.7c0.8,0,1.4-0.2,1.9-0.7s0.7-1.1,0.7-2c0-0.8-0.2-1.5-0.7-2
		c-0.5-0.5-1.1-0.7-1.9-0.7C36.4,39.2,35.7,39.4,35.2,39.9z"/>
	<path class="st8" d="M60.6,32.7h-8.4v3.7c0.4-0.4,0.9-0.7,1.5-1c0.6-0.3,1.4-0.4,2.1-0.4c1.3,0,2.5,0.3,3.4,0.9
		c0.9,0.6,1.5,1.4,2,2.4c0.4,1,0.6,2,0.6,3.2c0,2.1-0.6,3.8-1.8,5c-1.2,1.2-2.9,1.8-5,1.8c-1.4,0-2.7-0.2-3.8-0.7
		c-1.1-0.5-1.9-1.2-2.5-2.1c-0.6-0.9-0.9-1.9-0.9-3.1h4.5c0.1,0.6,0.4,1,0.8,1.4s1,0.6,1.7,0.6c0.8,0,1.5-0.3,1.9-0.8
		c0.4-0.5,0.6-1.3,0.6-2.2c0-0.9-0.2-1.6-0.6-2s-1.1-0.7-1.9-0.7c-0.6,0-1.1,0.1-1.5,0.4c-0.4,0.3-0.7,0.7-0.8,1.2H48V28.7h12.6
		V32.7z"/>
</g>
</svg>
