<?xml version="1.0" encoding="utf-8"?>
<!-- Generator: Adobe Illustrator 23.0.1, SVG Export Plug-In . SVG Version: 6.00 Build 0)  -->
<svg version="1.1" id="Camada_1" xmlns="http://www.w3.org/2000/svg" xmlns:xlink="http://www.w3.org/1999/xlink" x="0px" y="0px"
	 viewBox="0 0 155.2 77.7" style="enable-background:new 0 0 155.2 77.7;" xml:space="preserve">
<style type="text/css">
	.st0{fill:#FFFFFF;stroke:#000000;stroke-width:8;stroke-miterlimit:10;}
	.st1{fill:none;stroke:#010202;stroke-width:8;stroke-miterlimit:10;}
	.st2{fill:none;stroke:#000000;stroke-width:8;stroke-miterlimit:10;}
	.st3{fill:none;stroke:#FFFFFF;stroke-width:20;stroke-miterlimit:10;}
	.st4{fill:none;stroke:#FFFFFF;stroke-width:21;stroke-miterlimit:10;}
	.st5{fill:#FFFFFF;}
</style>
<g>
	<g>
		<circle class="st5" cx="39" cy="38.7" r="32.1"/>
		<path d="M39,73C20,73,4.6,57.6,4.6,38.7C4.6,19.8,20,4.4,39,4.4s34.3,15.4,34.3,34.3C73.3,57.6,57.9,73,39,73z M39,8.9
			C22.5,8.9,9.1,22.3,9.1,38.7S22.5,68.6,39,68.6s29.8-13.4,29.8-29.8S55.4,8.9,39,8.9z"/>
	</g>
	<path d="M58.2,30.2C56,32.4,52.6,32.8,50,31c-2.8-2-3.5-6-1.5-8.8c0.4-0.5,0.9-1,1.4-1.4c-3.2-1.9-6.9-3.1-10.9-3.1
		c-11.6,0-21,9.4-21,21s9.4,21,21,21s21-9.4,21-21C60,35.7,59.3,32.8,58.2,30.2z"/>
</g>
<g>
	<g>
		<circle class="st5" cx="113.8" cy="38.7" r="32.1"/>
		<path d="M113.8,73c-18.9,0-34.3-15.4-34.3-34.3c0-18.9,15.4-34.3,34.3-34.3s34.3,15.4,34.3,34.3C148.1,57.6,132.7,73,113.8,73z
			 M113.8,8.9c-16.5,0-29.8,13.4-29.8,29.8s13.4,29.8,29.8,29.8s29.8-13.4,29.8-29.8S130.2,8.9,113.8,8.9z"/>
	</g>
	<path d="M133,30.2c-2.1,2.2-5.6,2.6-8.2,0.8c-2.8-2-3.5-6-1.5-8.8c0.4-0.5,0.9-1,1.4-1.4c-3.2-1.9-6.9-3.1-10.9-3.1
		c-11.6,0-21,9.4-21,21s9.4,21,21,21s21-9.4,21-21C134.8,35.7,134.1,32.8,133,30.2z"/>
</g>
</svg>
