<?xml version="1.0" encoding="utf-8"?>
<!-- Generator: Adobe Illustrator 23.0.1, SVG Export Plug-In . SVG Version: 6.00 Build 0)  -->
<svg version="1.1"
	 id="svg2" inkscape:version="0.91 r13725" sodipodi:docname="TallestBuildings.svg" xmlns:cc="http://creativecommons.org/ns#" xmlns:dc="http://purl.org/dc/elements/1.1/" xmlns:inkscape="http://www.inkscape.org/namespaces/inkscape" xmlns:ns1="http://ns.adobe.com/Flows/1.0/" xmlns:rdf="http://www.w3.org/1999/02/22-rdf-syntax-ns#" xmlns:sodipodi="http://sodipodi.sourceforge.net/DTD/sodipodi-0.dtd" xmlns:svg="http://www.w3.org/2000/svg"
	 xmlns="http://www.w3.org/2000/svg" xmlns:xlink="http://www.w3.org/1999/xlink" x="0px" y="0px" viewBox="0 0 1413.6 2976.4"
	 style="enable-background:new 0 0 1413.6 2976.4;" xml:space="preserve">
<style type="text/css">
	.st0{fill:none;stroke:#B3B3B3;stroke-width:2;stroke-linecap:square;}
	.st1{fill-rule:evenodd;clip-rule:evenodd;stroke:#000000;stroke-width:2.1912;stroke-linecap:round;}
	.st2{fill-rule:evenodd;clip-rule:evenodd;stroke:#000000;stroke-width:2.1244;}
	.st3{fill-rule:evenodd;clip-rule:evenodd;fill:#CCCCCC;stroke:#CCCCCC;stroke-width:2.0649;stroke-linecap:round;}
	.st4{fill:#CCCCCC;stroke:#CCCCCC;stroke-width:0.9927;stroke-linecap:square;}
	.st5{fill-rule:evenodd;clip-rule:evenodd;fill:#CCCCCC;stroke:#CCCCCC;stroke-width:2.055;stroke-linecap:round;}
	.st6{fill-rule:evenodd;clip-rule:evenodd;stroke:#000000;stroke-width:2.1474;}
	.st7{fill-rule:evenodd;clip-rule:evenodd;stroke:#000000;stroke-width:2.1199;stroke-linecap:round;}
	.st8{fill-rule:evenodd;clip-rule:evenodd;stroke:#000000;stroke-width:2.0093;stroke-linecap:round;}
	.st9{stroke:#000000;stroke-width:0.7774;stroke-linecap:square;}
	.st10{stroke:#000000;stroke-width:0.8962;stroke-linecap:square;}
</style>
<path id="path4692" class="st8" d="M718.2,0l-8,222.3h-23.6v40.6h-10.8v21.5h91.9v-21.5h-22.2v-40.6h-24.5L718.2,0L718.2,0z
	 M682.4,289.6V314H656v29.6h124.9V314h-22.2v-24.4H682.4z M662.6,347.7c10.6,11.9,19.9,24.6,20.3,44.1H680
	c-2.5,430.2-40.2,790.4-91.9,1166.1l257.4-2.3c-47.7-376.6-86.1-733.7-88.6-1163.7h-0.9c2.6-16.7,4.5-33.5,17-44.1H662.6z
	 M588.1,1557.8h-10.8v45.9h295.6v-45.9H588.1z M529.2,1606.6v37.7h47.1c-6.8,34.9-14,69.8-21.2,105.1h-17v51.1h6.1
	c-25.5,117.7-57.3,240.4-110.8,379.6h-88.2v5.2h82.5c-11,30.5-22.8,61.1-35.4,91.7h-42.4v59.2h17C278,2538.5,158.6,2746,30,2976.4
	l207.9-3.5c56.3-114.5,115.1-228.2,171.1-345.9l0.5-0.6c221.9-194.9,425.2-158.3,619.4-12.2c57.8,122.3,118.1,240.1,176.3,358.7
	l208.4,3.5c-128.6-230.4-248-437.9-337.1-640.2h10.4V2277h-35.8c-12.6-30.6-24.4-61.2-35.4-91.7h75.9v-5.2h-79.2
	c-53.5-139.2-85.8-261.9-111.3-379.6v-51.1h-10.8c-7.2-35.2-14-70.2-20.7-105.1h33.9v-37.7L529.2,1606.6L529.2,1606.6z
	 M683.3,1644.3h79.2c4.5,36,9.1,70.9,14.1,105.1H669.2C674.2,1715.2,678.8,1680.3,683.3,1644.3z M661.7,1800.5h122.6
	c21.7,137.4,46.7,261.4,73.5,379.6H587.7C614.5,2061.8,640,1937.9,661.7,1800.5z M587.7,2185.3h268.2c9.9,31,19.9,61.6,30.6,91.7
	h-330C567.3,2246.9,577.8,2216.3,587.7,2185.3z"/>
</svg>
