<?xml version="1.0" encoding="utf-8"?>
<!-- Generator: Adobe Illustrator 23.0.1, SVG Export Plug-In . SVG Version: 6.00 Build 0)  -->
<svg version="1.1"
	 id="svg2" inkscape:version="0.91 r13725" sodipodi:docname="TallestBuildings.svg" xmlns:cc="http://creativecommons.org/ns#" xmlns:dc="http://purl.org/dc/elements/1.1/" xmlns:inkscape="http://www.inkscape.org/namespaces/inkscape" xmlns:ns1="http://ns.adobe.com/Flows/1.0/" xmlns:rdf="http://www.w3.org/1999/02/22-rdf-syntax-ns#" xmlns:sodipodi="http://sodipodi.sourceforge.net/DTD/sodipodi-0.dtd" xmlns:svg="http://www.w3.org/2000/svg"
	 xmlns="http://www.w3.org/2000/svg" xmlns:xlink="http://www.w3.org/1999/xlink" x="0px" y="0px" viewBox="0 0 679.4 5458.8"
	 style="enable-background:new 0 0 679.4 5458.8;" xml:space="preserve">
<style type="text/css">
	.st0{fill:none;stroke:#B3B3B3;stroke-width:2;stroke-linecap:square;}
	.st1{fill-rule:evenodd;clip-rule:evenodd;stroke:#000000;stroke-width:2.1912;stroke-linecap:round;}
	.st2{fill-rule:evenodd;clip-rule:evenodd;stroke:#000000;stroke-width:2.1244;}
	.st3{fill-rule:evenodd;clip-rule:evenodd;fill:#CCCCCC;stroke:#CCCCCC;stroke-width:2.0649;stroke-linecap:round;}
	.st4{fill:#CCCCCC;stroke:#CCCCCC;stroke-width:0.9927;stroke-linecap:square;}
	.st5{fill-rule:evenodd;clip-rule:evenodd;fill:#CCCCCC;stroke:#CCCCCC;stroke-width:2.055;stroke-linecap:round;}
	.st6{fill-rule:evenodd;clip-rule:evenodd;stroke:#000000;stroke-width:2.1474;}
	.st7{fill-rule:evenodd;clip-rule:evenodd;stroke:#000000;stroke-width:2.1199;stroke-linecap:round;}
	.st8{fill-rule:evenodd;clip-rule:evenodd;stroke:#000000;stroke-width:2.0093;stroke-linecap:round;}
	.st9{stroke:#000000;stroke-width:0.7774;stroke-linecap:square;}
	.st10{stroke:#000000;stroke-width:0.8962;stroke-linecap:square;}
</style>
<path id="path3940" class="st2" d="M323.9,1.1L320,548.8l-21.7,8.5l-4.6,436c-39.7,31.6-98.7,63.1-17.1,94.7v621.4l-13.2,4.6v116.4
	l-86.1,4.6v77.6c-206.1,141.9-74.7,236.9-42.7,254.5c-67.6,36-56.2,71.9-9.2,107.8l108.5,3.9c-30.1,1002.5-55.7,2005.3-191.4,3007.8
	H1.1v91.4h34.2v79.6H635v-79.6h43.4v-91.4h-50.6C492.1,4284.2,466.5,3281.5,436.4,2279l107.8-3.9c47-36,59.1-71.9-8.5-107.8
	c31.9-17.6,162.7-112.5-43.4-254.5v-77.6l-86.1-4.6v-116.4l-13.2-4.6v-621.4c81.6-31.6,22.6-63.1-17.1-94.7l-4.6-436l-21-8.5
	L345.6,1.1h-8.5h-4.6L323.9,1.1L323.9,1.1z"/>
</svg>
