<?xml version="1.0" encoding="utf-8"?>
<!-- Generator: Adobe Illustrator 23.0.1, SVG Export Plug-In . SVG Version: 6.00 Build 0)  -->
<svg version="1.1"
	 id="svg2" inkscape:version="0.91 r13725" sodipodi:docname="TallestBuildings.svg" xmlns:cc="http://creativecommons.org/ns#" xmlns:dc="http://purl.org/dc/elements/1.1/" xmlns:inkscape="http://www.inkscape.org/namespaces/inkscape" xmlns:ns1="http://ns.adobe.com/Flows/1.0/" xmlns:rdf="http://www.w3.org/1999/02/22-rdf-syntax-ns#" xmlns:sodipodi="http://sodipodi.sourceforge.net/DTD/sodipodi-0.dtd" xmlns:svg="http://www.w3.org/2000/svg"
	 xmlns="http://www.w3.org/2000/svg" xmlns:xlink="http://www.w3.org/1999/xlink" x="0px" y="0px" viewBox="0 0 1573.2 8137.6"
	 style="enable-background:new 0 0 1573.2 8137.6;" xml:space="preserve">
<style type="text/css">
	.st0{fill:none;stroke:#B3B3B3;stroke-width:2;stroke-linecap:square;}
	.st1{fill-rule:evenodd;clip-rule:evenodd;stroke:#000000;stroke-width:2.1912;stroke-linecap:round;}
	.st2{fill-rule:evenodd;clip-rule:evenodd;stroke:#000000;stroke-width:2.1244;}
	.st3{fill-rule:evenodd;clip-rule:evenodd;fill:#CCCCCC;stroke:#CCCCCC;stroke-width:2.0649;stroke-linecap:round;}
	.st4{fill:#CCCCCC;stroke:#CCCCCC;stroke-width:0.9927;stroke-linecap:square;}
	.st5{fill-rule:evenodd;clip-rule:evenodd;fill:#CCCCCC;stroke:#CCCCCC;stroke-width:2.055;stroke-linecap:round;}
	.st6{fill-rule:evenodd;clip-rule:evenodd;stroke:#000000;stroke-width:2.1474;}
	.st7{fill-rule:evenodd;clip-rule:evenodd;stroke:#000000;stroke-width:2.1199;stroke-linecap:round;}
	.st8{fill-rule:evenodd;clip-rule:evenodd;stroke:#000000;stroke-width:2.0093;stroke-linecap:round;}
	.st9{stroke:#000000;stroke-width:0.7774;stroke-linecap:square;}
	.st10{stroke:#000000;stroke-width:0.8962;stroke-linecap:square;}
</style>
<path id="path3164" class="st1" d="M782.9,1.1v697.7l-35.8,28.2v597.4l-26.3,31.3l-6.3,574.8l-47,53.2v565.8l-21.8,43.8l-6.3,1628
	l-88,21.6l-6.3,1172.8l-81.4,29.3v1091.6l-49.9,10l-6.3,765.3l-68.6,11.1v450.6h-75.6v99.8h-62.7v74.9H1.1v188.2h1571v-188.2h-156.4
	v-74.9h-100.5v-87.7l-65.5-3.1l-9.4-672.8l-68.6-7.4l9.4-903.2l-72.1-16.8l-6.3-1113.2l-63.2-16.8l-12.4-1260.2l-49.9-68.9
	c0-969.3,0-590.4,0-920.1l-56.5-90.8l-6.3-3h10.1v-354.2l-38.3-34.4l-6.3-337.3h-8.8v-425l-35.1-62.6l-9.4,27.5h9.4V948.2L803.6,920
	l-3.1-193.1V1.1L782.9,1.1L782.9,1.1z"/>
</svg>
